<svg xmlns="http://www.w3.org/2000/svg" xmlns:xlink="http://www.w3.org/1999/xlink" width="1050" zoomAndPan="magnify" viewBox="0 0 787.5 307.499996" height="410" preserveAspectRatio="xMidYMid meet" version="1.0"><defs><g/><clipPath id="57590436a8"><path d="M 0.390625 0 L 211 0 L 211 204 L 0.390625 204 Z M 0.390625 0 " clip-rule="nonzero"/></clipPath><clipPath id="8287a83375"><path d="M 0.390625 57 L 126 57 L 126 231 L 0.390625 231 Z M 0.390625 57 " clip-rule="nonzero"/></clipPath><clipPath id="559fd3869c"><path d="M 125.4375 171.625 L 149.457031 171.625 L 149.457031 195.644531 L 125.4375 195.644531 Z M 125.4375 171.625 " clip-rule="nonzero"/></clipPath><clipPath id="1598a3d50b"><path d="M 65 111 L 264 111 L 264 307 L 65 307 Z M 65 111 " clip-rule="nonzero"/></clipPath><clipPath id="fe54ee6866"><path d="M 12 111 L 210 111 L 210 307 L 12 307 Z M 12 111 " clip-rule="nonzero"/></clipPath><clipPath id="3eb856bf0c"><path d="M 0.390625 3 L 212 3 L 212 258 L 0.390625 258 Z M 0.390625 3 " clip-rule="nonzero"/></clipPath><clipPath id="aad95577d3"><path d="M 0.390625 111 L 210 111 L 210 307 L 0.390625 307 Z M 0.390625 111 " clip-rule="nonzero"/></clipPath><clipPath id="b18f8cceeb"><path d="M 63 109 L 318 109 L 318 307 L 63 307 Z M 63 109 " clip-rule="nonzero"/></clipPath></defs><g fill="#000000" fill-opacity="1"><g transform="translate(287.878046, 174.259442)"><g><path d="M 51.671875 2.566406 L 57.148438 2.566406 L 107.792969 -122.335938 L 79.5625 -122.335938 L 63.136719 -80.757812 L 54.410156 -56.292969 L 45.511719 -81.613281 L 29.257812 -122.335938 L 1.027344 -122.335938 Z M 51.671875 2.566406 "/></g></g></g><g fill="#000000" fill-opacity="1"><g transform="translate(396.859102, 174.259442)"><g><path d="M 72.546875 1.710938 C 156.726562 1.710938 156.726562 -124.386719 72.546875 -124.386719 C -11.632812 -124.386719 -11.632812 1.710938 72.546875 1.710938 Z M 72.546875 -23.613281 C 23.613281 -23.613281 23.613281 -99.238281 72.546875 -99.238281 C 121.480469 -99.238281 121.480469 -23.613281 72.546875 -23.613281 Z M 72.546875 -23.613281 "/></g></g></g><g fill="#000000" fill-opacity="1"><g transform="translate(541.768012, 174.259442)"><g><path d="M 13.6875 -122.335938 L 13.6875 0 L 76.996094 0 L 76.996094 -24.46875 L 38.15625 -24.46875 L 38.15625 -122.335938 Z M 13.6875 -122.335938 "/></g></g></g><g fill="#000000" fill-opacity="1"><g transform="translate(626.112868, 174.259442)"><g><path d="M 38.15625 0 L 38.15625 -122.335938 L 13.6875 -122.335938 L 13.6875 0 Z M 38.15625 0 "/></g></g></g><g fill="#000000" fill-opacity="1"><g transform="translate(678.122666, 174.259442)"><g><path d="M 58.34375 0 L 58.34375 -97.867188 L 88.800781 -97.867188 L 88.800781 -122.164062 L 3.421875 -122.164062 L 3.421875 -97.867188 L 33.878906 -97.867188 L 33.878906 0 Z M 58.34375 0 "/></g></g></g><g clip-path="url(#57590436a8)"><path stroke-linecap="round" transform="matrix(0.458899, -0.458899, 0.459062, 0.459062, 15.748255, 130.019486)" fill="none" stroke-linejoin="miter" d="M 10.003709 10.00027 L 255.104522 10.00027 " stroke="#ff006e" stroke-width="20" stroke-opacity="1" stroke-miterlimit="4"/></g><path stroke-linecap="round" transform="matrix(-0.45969, -0.45969, 0.459062, -0.459062, 249.770227, 138.171417)" fill="none" stroke-linejoin="miter" d="M 9.997663 10.001317 L 252.654581 10.001317 " stroke="#ff006e" stroke-width="20" stroke-opacity="1" stroke-miterlimit="4"/><path stroke-linecap="round" transform="matrix(-0.457946, 0.457946, -0.459062, -0.459062, 259.204184, 130.013139)" fill="none" stroke-linejoin="miter" d="M 10.000946 9.996765 L 67.198379 10.00102 " stroke="#ff006e" stroke-width="20" stroke-opacity="1" stroke-miterlimit="4"/><g clip-path="url(#8287a83375)"><path stroke-linecap="round" transform="matrix(-0.45765, -0.45765, 0.459062, -0.459062, 52.039535, 166.227564)" fill="none" stroke-linejoin="miter" d="M 10.000888 10.00315 L 66.236693 9.998896 " stroke="#ff006e" stroke-width="20" stroke-opacity="1" stroke-miterlimit="4"/></g><g clip-path="url(#559fd3869c)"><path fill="#ff006e" d="M 137.449219 171.625 C 130.8125 171.625 125.4375 177 125.4375 183.632812 C 125.4375 190.265625 130.8125 195.644531 137.449219 195.644531 C 144.082031 195.644531 149.457031 190.265625 149.457031 183.632812 C 149.457031 177 144.082031 171.625 137.449219 171.625 " fill-opacity="1" fill-rule="nonzero"/></g><path stroke-linecap="round" transform="matrix(-0.458896, 0.458896, -0.459062, -0.459062, 145.478977, 132.601791)" fill="none" stroke-linejoin="miter" d="M 10.000049 9.996944 L 120.059511 10.001199 " stroke="#ff006e" stroke-width="20" stroke-opacity="1" stroke-miterlimit="4"/><path stroke-linecap="round" transform="matrix(0.460251, 0.460251, -0.459062, 0.459062, 137.76614, 122.313434)" fill="none" stroke-linejoin="miter" d="M 10.000608 10.002117 L 122.672627 9.997862 " stroke="#ff006e" stroke-width="20" stroke-opacity="1" stroke-miterlimit="4"/><g clip-path="url(#1598a3d50b)"><path stroke-linecap="round" transform="matrix(-0.460168, 0.460168, -0.459062, -0.459062, 198.668182, 185.130898)" fill="none" stroke-linejoin="miter" d="M 9.997817 10.000722 L 119.693717 9.996467 " stroke="#ff006e" stroke-width="20" stroke-opacity="1" stroke-miterlimit="4"/></g><g clip-path="url(#fe54ee6866)"><path stroke-linecap="round" transform="matrix(0.459448, 0.459448, -0.459062, 0.459062, 85.779213, 175.854682)" fill="none" stroke-linejoin="miter" d="M 9.99723 10.001212 L 119.903203 10.001212 " stroke="#ff006e" stroke-width="20" stroke-opacity="1" stroke-miterlimit="4"/></g><g clip-path="url(#3eb856bf0c)"><path stroke-linecap="round" transform="matrix(0.459345, -0.459345, 0.459062, 0.459062, 21.828468, 183.608589)" fill="none" stroke-linejoin="miter" d="M 9.999419 9.998802 L 242.850388 10.003056 " stroke="#ff006e" stroke-width="20" stroke-opacity="1" stroke-miterlimit="4"/></g><path stroke-linecap="round" transform="matrix(-0.458974, -0.458974, 0.459062, -0.459062, 242.688677, 190.840948)" fill="none" stroke-linejoin="miter" d="M 9.998454 10.002495 L 236.058842 9.99824 " stroke="#ff006e" stroke-width="20" stroke-opacity="1" stroke-miterlimit="4"/><g clip-path="url(#aad95577d3)"><path stroke-linecap="round" transform="matrix(-0.459206, -0.459206, 0.459062, -0.459062, 135.904333, 298.808063)" fill="none" stroke-linejoin="miter" d="M 10.001024 9.999829 L 238.920453 9.999829 " stroke="#ff006e" stroke-width="20" stroke-opacity="1" stroke-miterlimit="4"/></g><g clip-path="url(#b18f8cceeb)"><path stroke-linecap="round" transform="matrix(0.459517, -0.459517, 0.459062, 0.459062, 128.225365, 289.689765)" fill="none" stroke-linejoin="miter" d="M 10.000669 9.997158 L 241.761309 10.001412 " stroke="#ff006e" stroke-width="20" stroke-opacity="1" stroke-miterlimit="4"/></g><g fill="#000000" fill-opacity="1"><g transform="translate(374.206758, 265.946018)"><g><path d="M 47.453125 -33.0625 L 38.21875 0 L 30.40625 0 L 24.203125 -23.53125 L 17.71875 0 L 9.953125 0.046875 L 1.046875 -33.0625 L 8.140625 -33.0625 L 13.96875 -7.390625 L 20.703125 -33.0625 L 28.078125 -33.0625 L 34.4375 -7.53125 L 40.296875 -33.0625 Z M 47.453125 -33.0625 "/></g></g></g><g fill="#000000" fill-opacity="1"><g transform="translate(422.70066, 265.946018)"><g><path d="M 29.546875 -33.0625 L 18.375 -11.515625 L 18.375 0 L 11.75 0 L 11.75 -11.515625 L 0.515625 -33.0625 L 8 -33.0625 L 15.109375 -17.953125 L 22.171875 -33.0625 Z M 29.546875 -33.0625 "/></g></g></g><g fill="#000000" fill-opacity="1"><g transform="translate(452.819932, 265.946018)"><g><path d="M 14.828125 -33.0625 C 18.296875 -33.0625 21.347656 -32.378906 23.984375 -31.015625 C 26.617188 -29.660156 28.65625 -27.726562 30.09375 -25.21875 C 31.53125 -22.707031 32.25 -19.796875 32.25 -16.484375 C 32.25 -13.171875 31.53125 -10.273438 30.09375 -7.796875 C 28.65625 -5.316406 26.617188 -3.394531 23.984375 -2.03125 C 21.347656 -0.675781 18.296875 0 14.828125 0 L 3.265625 0 L 3.265625 -33.0625 Z M 14.59375 -5.640625 C 18.0625 -5.640625 20.742188 -6.582031 22.640625 -8.46875 C 24.535156 -10.363281 25.484375 -13.035156 25.484375 -16.484375 C 25.484375 -19.921875 24.535156 -22.609375 22.640625 -24.546875 C 20.742188 -26.492188 18.0625 -27.46875 14.59375 -27.46875 L 9.890625 -27.46875 L 9.890625 -5.640625 Z M 14.59375 -5.640625 "/></g></g></g><g fill="#000000" fill-opacity="1"><g transform="translate(486.77513, 265.946018)"><g><path d="M 23.53125 -6.296875 L 10.375 -6.296875 L 8.1875 0 L 1.234375 0 L 13.125 -33.109375 L 20.84375 -33.109375 L 32.71875 0 L 25.71875 0 Z M 21.734375 -11.609375 L 16.953125 -25.4375 L 12.171875 -11.609375 Z M 21.734375 -11.609375 "/></g></g></g><g fill="#000000" fill-opacity="1"><g transform="translate(520.682966, 265.946018)"><g><path d="M 20.3125 0 L 13.03125 -12.875 L 9.890625 -12.875 L 9.890625 0 L 3.265625 0 L 3.265625 -33.0625 L 15.671875 -33.0625 C 18.234375 -33.0625 20.410156 -32.609375 22.203125 -31.703125 C 24.003906 -30.804688 25.351562 -29.59375 26.25 -28.0625 C 27.15625 -26.53125 27.609375 -24.816406 27.609375 -22.921875 C 27.609375 -20.742188 26.976562 -18.773438 25.71875 -17.015625 C 24.457031 -15.265625 22.578125 -14.0625 20.078125 -13.40625 L 27.984375 0 Z M 9.890625 -17.859375 L 15.4375 -17.859375 C 17.238281 -17.859375 18.582031 -18.289062 19.46875 -19.15625 C 20.351562 -20.019531 20.796875 -21.226562 20.796875 -22.78125 C 20.796875 -24.289062 20.351562 -25.460938 19.46875 -26.296875 C 18.582031 -27.140625 17.238281 -27.5625 15.4375 -27.5625 L 9.890625 -27.5625 Z M 9.890625 -17.859375 "/></g></g></g><g fill="#000000" fill-opacity="1"><g transform="translate(551.039016, 265.946018)"><g><path d="M 10.046875 -5.59375 L 24.90625 -5.59375 L 24.90625 0 L 2.375 0 L 2.375 -5.109375 L 17.140625 -27.46875 L 2.375 -27.46875 L 2.375 -33.0625 L 24.90625 -33.0625 L 24.90625 -27.9375 Z M 10.046875 -5.59375 "/></g></g></g><g fill="#000000" fill-opacity="1"><g transform="translate(578.316836, 265.946018)"><g><path d="M 9.890625 -27.703125 L 9.890625 -19.421875 L 21.03125 -19.421875 L 21.03125 -14.15625 L 9.890625 -14.15625 L 9.890625 -5.40625 L 22.453125 -5.40625 L 22.453125 0 L 3.265625 0 L 3.265625 -33.109375 L 22.453125 -33.109375 L 22.453125 -27.703125 Z M 9.890625 -27.703125 "/></g></g></g><g fill="#000000" fill-opacity="1"><g transform="translate(603.510928, 265.946018)"><g><path d="M 31.546875 0 L 24.90625 0 L 9.890625 -22.6875 L 9.890625 0 L 3.265625 0 L 3.265625 -33.109375 L 9.890625 -33.109375 L 24.90625 -10.375 L 24.90625 -33.109375 L 31.546875 -33.109375 Z M 31.546875 0 "/></g></g></g><g fill="#000000" fill-opacity="1"><g transform="translate(638.318574, 265.946018)"><g><path d="M 9.890625 -33.0625 L 9.890625 0 L 3.265625 0 L 3.265625 -33.0625 Z M 9.890625 -33.0625 "/></g></g></g><g fill="#000000" fill-opacity="1"><g transform="translate(651.483913, 265.946018)"><g><path d="M 23.53125 -6.296875 L 10.375 -6.296875 L 8.1875 0 L 1.234375 0 L 13.125 -33.109375 L 20.84375 -33.109375 L 32.71875 0 L 25.71875 0 Z M 21.734375 -11.609375 L 16.953125 -25.4375 L 12.171875 -11.609375 Z M 21.734375 -11.609375 "/></g></g></g></svg>