<svg xmlns="http://www.w3.org/2000/svg" xmlns:xlink="http://www.w3.org/1999/xlink" width="500" zoomAndPan="magnify" viewBox="0 0 375 374.999991" height="500" preserveAspectRatio="xMidYMid meet" version="1.0"><defs><g/><clipPath id="fbf71dd164"><path d="M 118 52 L 224 52 L 224 227.25 L 118 227.25 Z M 118 52 " clip-rule="nonzero"/></clipPath><clipPath id="2083f5061f"><path d="M 208.207031 165.820312 C 207.910156 149.632812 206.277344 132.71875 197.535156 119.097656 C 199.714844 123.117188 199.804688 128.203125 197.761719 132.289062 C 196.761719 119.871094 188.386719 109.152344 178.601562 101.414062 C 168.816406 93.671875 157.488281 88.199219 147.25 81.070312 C 137.03125 73.941406 127.566406 64.566406 124.320312 52.535156 C 121.003906 69.105469 118.007812 85.929688 118.597656 102.820312 C 119.1875 119.710938 123.660156 136.917969 133.992188 150.3125 C 151.359375 172.859375 183.117188 182.394531 196.421875 207.546875 C 198.171875 190.722656 192.972656 173.3125 182.277344 160.191406 C 173.355469 149.246094 161.097656 141.503906 151.722656 130.949219 C 141.367188 119.28125 134.875 104.25 133.46875 88.722656 C 136.167969 104.613281 148.90625 116.714844 161.753906 126.453125 C 174.582031 136.191406 188.726562 145.34375 196.558594 159.417969 C 202.597656 170.246094 204.230469 182.871094 206.957031 194.96875 C 209.679688 207.070312 214.0625 219.601562 223.757812 227.320312 C 221.28125 223.144531 209.046875 211.972656 208.207031 165.820312 Z M 208.207031 165.820312 " clip-rule="nonzero"/></clipPath><clipPath id="2f436ff3ae"><path d="M 220 192 L 270 192 L 270 222 L 220 222 Z M 220 192 " clip-rule="nonzero"/></clipPath><clipPath id="2c045ec9bd"><path d="M 220.644531 215.8125 C 221.734375 218.058594 222.78125 219.828125 223.6875 221.191406 C 241.125 215.199219 256.675781 205.09375 269.117188 192.042969 C 255.585938 203.871094 238.96875 212.246094 220.644531 215.8125 Z M 220.644531 215.8125 " clip-rule="nonzero"/></clipPath><clipPath id="f7bcdf5a74"><path d="M 73.171875 0 L 270 0 L 270 227.25 L 73.171875 227.25 Z M 73.171875 0 " clip-rule="nonzero"/></clipPath><clipPath id="63c018c303"><path d="M 211.132812 217.195312 C 207.683594 217.535156 204.210938 217.71875 200.667969 217.71875 C 143.207031 217.71875 96.597656 171.132812 96.597656 113.648438 C 96.597656 56.167969 143.207031 9.601562 200.667969 9.601562 C 226.890625 9.601562 250.816406 19.296875 269.117188 35.300781 C 248.410156 13.574219 219.191406 0.0234375 186.820312 0.0234375 C 124.046875 0.0234375 73.171875 50.898438 73.171875 113.671875 C 73.171875 176.445312 124.046875 227.320312 186.820312 227.320312 C 196.695312 227.320312 206.277344 226.050781 215.402344 223.6875 C 213.765625 221.644531 212.359375 219.464844 211.132812 217.195312 Z M 211.132812 217.195312 " clip-rule="nonzero"/></clipPath></defs><g clip-path="url(#fbf71dd164)"><g clip-path="url(#2083f5061f)"><path fill="#124838" d="M 223.757812 52.535156 L 223.757812 227.25 L 118.007812 227.25 L 118.007812 52.535156 Z M 223.757812 52.535156 " fill-opacity="1" fill-rule="nonzero"/></g></g><path fill="#e3a476" d="M 284.03125 103.046875 C 279.128906 84.976562 269.457031 68.628906 259.921875 52.535156 C 263.757812 62.113281 260.238281 73.171875 254.585938 81.820312 C 248.957031 90.46875 241.304688 97.644531 235.675781 106.292969 C 225.867188 121.300781 220.53125 135.332031 220.53125 158.464844 C 220.53125 174.332031 224.574219 189.453125 228.773438 204.777344 C 229.273438 191.609375 229.75 177.648438 233.632812 165.34375 C 244.371094 131.242188 263.394531 118.121094 273.316406 113.355469 C 237.765625 142.820312 238.242188 186.367188 238.015625 190.269531 C 253.722656 182.074219 269.820312 172.628906 278.96875 157.464844 C 288.617188 141.414062 288.9375 121.117188 284.03125 103.046875 Z M 284.03125 103.046875 " fill-opacity="1" fill-rule="nonzero"/><g clip-path="url(#2f436ff3ae)"><g clip-path="url(#2c045ec9bd)"><path fill="#124838" d="M 269.117188 192.042969 L 269.117188 221.191406 L 220.644531 221.191406 L 220.644531 192.042969 Z M 269.117188 192.042969 " fill-opacity="1" fill-rule="nonzero"/></g></g><g clip-path="url(#f7bcdf5a74)"><g clip-path="url(#63c018c303)"><path fill="#124838" d="M 269.117188 0.0234375 L 269.117188 227.25 L 73.171875 227.25 L 73.171875 0.0234375 Z M 269.117188 0.0234375 " fill-opacity="1" fill-rule="nonzero"/></g></g><g fill="#124838" fill-opacity="1"><g transform="translate(94.07455, 322.963104)"><g><path d="M 8.054688 0 L 18.984375 0 L 18.984375 -43.964844 L 19.476562 -43.964844 L 33.773438 0 L 44.210938 0 L 58.59375 -43.964844 L 59.003906 -43.964844 L 59.003906 0 L 70.097656 0 L 70.097656 -56.621094 L 53.578125 -56.621094 L 39.035156 -12.65625 L 24.40625 -56.621094 L 8.054688 -56.621094 Z M 8.054688 0 "/></g></g></g><g fill="#124838" fill-opacity="1"><g transform="translate(172.208331, 322.963104)"><g><path d="M 8.054688 0 L 19.066406 0 L 19.066406 -20.132812 L 33.609375 -20.132812 C 45.773438 -20.132812 52.921875 -26.789062 52.921875 -38.128906 C 52.921875 -49.386719 45.691406 -56.703125 33.609375 -56.703125 L 8.054688 -56.703125 Z M 19.066406 -29.335938 L 19.066406 -47.085938 L 32.542969 -47.085938 C 38.789062 -47.085938 41.910156 -43.882812 41.910156 -38.210938 C 41.910156 -32.378906 38.953125 -29.335938 32.542969 -29.335938 Z M 19.066406 -29.335938 "/></g></g></g><g fill="#124838" fill-opacity="1"><g transform="translate(229.22708, 322.963104)"><g><path d="M 8.054688 0 L 46.101562 0 L 46.101562 -9.449219 L 19.148438 -9.449219 L 19.148438 -23.667969 L 43.800781 -23.667969 L 43.800781 -33.117188 L 19.148438 -33.117188 L 19.148438 -47.25 L 46.101562 -47.25 L 46.101562 -56.703125 L 8.054688 -56.703125 Z M 8.054688 0 "/></g></g></g><g fill="#124838" fill-opacity="1"><g transform="translate(82.428873, 367.79735)"><g><path d="M 30.46875 -21.40625 L 23.796875 0 L 21.203125 0 L 15.78125 -16.328125 C 15.726562 -16.484375 15.675781 -16.648438 15.625 -16.828125 C 15.582031 -17.015625 15.535156 -17.207031 15.484375 -17.40625 C 15.441406 -17.207031 15.394531 -17.015625 15.34375 -16.828125 C 15.289062 -16.648438 15.238281 -16.484375 15.1875 -16.328125 L 9.734375 0 L 7.140625 0 L 0.46875 -21.40625 L 2.875 -21.40625 C 3.125 -21.40625 3.335938 -21.335938 3.515625 -21.203125 C 3.691406 -21.078125 3.804688 -20.914062 3.859375 -20.71875 L 8.28125 -5.84375 C 8.34375 -5.570312 8.40625 -5.28125 8.46875 -4.96875 C 8.539062 -4.664062 8.601562 -4.335938 8.65625 -3.984375 C 8.726562 -4.335938 8.800781 -4.671875 8.875 -4.984375 C 8.957031 -5.296875 9.039062 -5.582031 9.125 -5.84375 L 14.15625 -20.71875 C 14.21875 -20.882812 14.332031 -21.039062 14.5 -21.1875 C 14.675781 -21.332031 14.890625 -21.40625 15.140625 -21.40625 L 15.984375 -21.40625 C 16.242188 -21.40625 16.453125 -21.335938 16.609375 -21.203125 C 16.765625 -21.078125 16.882812 -20.914062 16.96875 -20.71875 L 21.984375 -5.84375 C 22.078125 -5.582031 22.160156 -5.300781 22.234375 -5 C 22.304688 -4.707031 22.378906 -4.394531 22.453125 -4.0625 C 22.503906 -4.394531 22.554688 -4.707031 22.609375 -5 C 22.671875 -5.300781 22.738281 -5.582031 22.8125 -5.84375 L 27.25 -20.71875 C 27.300781 -20.894531 27.410156 -21.050781 27.578125 -21.1875 C 27.753906 -21.332031 27.96875 -21.40625 28.21875 -21.40625 Z M 30.46875 -21.40625 "/></g></g></g><g fill="#124838" fill-opacity="1"><g transform="translate(113.358208, 367.79735)"><g><path d="M 10.921875 -12.640625 C 10.796875 -12.421875 10.609375 -12.3125 10.359375 -12.3125 C 10.210938 -12.3125 10.046875 -12.363281 9.859375 -12.46875 C 9.671875 -12.582031 9.4375 -12.707031 9.15625 -12.84375 C 8.882812 -12.976562 8.5625 -13.101562 8.1875 -13.21875 C 7.8125 -13.332031 7.363281 -13.390625 6.84375 -13.390625 C 6.394531 -13.390625 5.988281 -13.332031 5.625 -13.21875 C 5.269531 -13.101562 4.960938 -12.941406 4.703125 -12.734375 C 4.453125 -12.535156 4.257812 -12.304688 4.125 -12.046875 C 3.988281 -11.785156 3.921875 -11.5 3.921875 -11.1875 C 3.921875 -10.800781 4.03125 -10.476562 4.25 -10.21875 C 4.476562 -9.957031 4.773438 -9.734375 5.140625 -9.546875 C 5.515625 -9.359375 5.9375 -9.191406 6.40625 -9.046875 C 6.875 -8.898438 7.351562 -8.742188 7.84375 -8.578125 C 8.34375 -8.410156 8.828125 -8.226562 9.296875 -8.03125 C 9.765625 -7.832031 10.179688 -7.582031 10.546875 -7.28125 C 10.910156 -6.988281 11.203125 -6.625 11.421875 -6.1875 C 11.648438 -5.757812 11.765625 -5.238281 11.765625 -4.625 C 11.765625 -3.925781 11.640625 -3.28125 11.390625 -2.6875 C 11.148438 -2.101562 10.785156 -1.59375 10.296875 -1.15625 C 9.804688 -0.726562 9.207031 -0.390625 8.5 -0.140625 C 7.789062 0.109375 6.972656 0.234375 6.046875 0.234375 C 4.992188 0.234375 4.035156 0.0625 3.171875 -0.28125 C 2.316406 -0.625 1.59375 -1.0625 1 -1.59375 L 1.625 -2.609375 C 1.707031 -2.742188 1.800781 -2.84375 1.90625 -2.90625 C 2.019531 -2.976562 2.160156 -3.015625 2.328125 -3.015625 C 2.503906 -3.015625 2.691406 -2.941406 2.890625 -2.796875 C 3.097656 -2.660156 3.34375 -2.507812 3.625 -2.34375 C 3.90625 -2.175781 4.25 -2.019531 4.65625 -1.875 C 5.0625 -1.738281 5.570312 -1.671875 6.1875 -1.671875 C 6.695312 -1.671875 7.144531 -1.738281 7.53125 -1.875 C 7.925781 -2.007812 8.253906 -2.191406 8.515625 -2.421875 C 8.773438 -2.648438 8.96875 -2.910156 9.09375 -3.203125 C 9.21875 -3.503906 9.28125 -3.828125 9.28125 -4.171875 C 9.28125 -4.585938 9.164062 -4.929688 8.9375 -5.203125 C 8.71875 -5.472656 8.421875 -5.707031 8.046875 -5.90625 C 7.679688 -6.101562 7.257812 -6.269531 6.78125 -6.40625 C 6.3125 -6.550781 5.828125 -6.703125 5.328125 -6.859375 C 4.835938 -7.023438 4.359375 -7.207031 3.890625 -7.40625 C 3.421875 -7.613281 3 -7.875 2.625 -8.1875 C 2.257812 -8.5 1.960938 -8.878906 1.734375 -9.328125 C 1.515625 -9.785156 1.40625 -10.335938 1.40625 -10.984375 C 1.40625 -11.554688 1.523438 -12.109375 1.765625 -12.640625 C 2.003906 -13.171875 2.351562 -13.640625 2.8125 -14.046875 C 3.269531 -14.453125 3.832031 -14.773438 4.5 -15.015625 C 5.164062 -15.253906 5.925781 -15.375 6.78125 -15.375 C 7.78125 -15.375 8.675781 -15.210938 9.46875 -14.890625 C 10.257812 -14.578125 10.941406 -14.148438 11.515625 -13.609375 Z M 10.921875 -12.640625 "/></g></g></g><g fill="#124838" fill-opacity="1"><g transform="translate(126.291488, 367.79735)"><g><path d="M 12.546875 -14 C 12.546875 -13.8125 12.515625 -13.625 12.453125 -13.4375 C 12.390625 -13.257812 12.300781 -13.109375 12.1875 -12.984375 L 3.984375 -2.078125 L 12.265625 -2.078125 L 12.265625 0 L 0.859375 0 L 0.859375 -1.109375 C 0.859375 -1.234375 0.890625 -1.382812 0.953125 -1.5625 C 1.015625 -1.738281 1.101562 -1.90625 1.21875 -2.0625 L 9.46875 -13.046875 L 1.328125 -13.046875 L 1.328125 -15.125 L 12.546875 -15.125 Z M 12.546875 -14 "/></g></g></g><g fill="#124838" fill-opacity="1"><g transform="translate(139.792267, 367.79735)"><g><path d="M 15.15625 -15.125 L 6.71875 4.46875 C 6.632812 4.664062 6.523438 4.820312 6.390625 4.9375 C 6.253906 5.0625 6.046875 5.125 5.765625 5.125 L 3.796875 5.125 L 6.5625 -0.875 L 0.3125 -15.125 L 2.609375 -15.125 C 2.835938 -15.125 3.019531 -15.066406 3.15625 -14.953125 C 3.289062 -14.835938 3.382812 -14.710938 3.4375 -14.578125 L 7.484375 -5.046875 C 7.640625 -4.628906 7.773438 -4.191406 7.890625 -3.734375 C 8.023438 -4.203125 8.171875 -4.644531 8.328125 -5.0625 L 12.265625 -14.578125 C 12.328125 -14.734375 12.425781 -14.863281 12.5625 -14.96875 C 12.707031 -15.070312 12.875 -15.125 13.0625 -15.125 Z M 15.15625 -15.125 "/></g></g></g><g fill="#124838" fill-opacity="1"><g transform="translate(155.189732, 367.79735)"><g><path d="M 10.921875 -12.640625 C 10.796875 -12.421875 10.609375 -12.3125 10.359375 -12.3125 C 10.210938 -12.3125 10.046875 -12.363281 9.859375 -12.46875 C 9.671875 -12.582031 9.4375 -12.707031 9.15625 -12.84375 C 8.882812 -12.976562 8.5625 -13.101562 8.1875 -13.21875 C 7.8125 -13.332031 7.363281 -13.390625 6.84375 -13.390625 C 6.394531 -13.390625 5.988281 -13.332031 5.625 -13.21875 C 5.269531 -13.101562 4.960938 -12.941406 4.703125 -12.734375 C 4.453125 -12.535156 4.257812 -12.304688 4.125 -12.046875 C 3.988281 -11.785156 3.921875 -11.5 3.921875 -11.1875 C 3.921875 -10.800781 4.03125 -10.476562 4.25 -10.21875 C 4.476562 -9.957031 4.773438 -9.734375 5.140625 -9.546875 C 5.515625 -9.359375 5.9375 -9.191406 6.40625 -9.046875 C 6.875 -8.898438 7.351562 -8.742188 7.84375 -8.578125 C 8.34375 -8.410156 8.828125 -8.226562 9.296875 -8.03125 C 9.765625 -7.832031 10.179688 -7.582031 10.546875 -7.28125 C 10.910156 -6.988281 11.203125 -6.625 11.421875 -6.1875 C 11.648438 -5.757812 11.765625 -5.238281 11.765625 -4.625 C 11.765625 -3.925781 11.640625 -3.28125 11.390625 -2.6875 C 11.148438 -2.101562 10.785156 -1.59375 10.296875 -1.15625 C 9.804688 -0.726562 9.207031 -0.390625 8.5 -0.140625 C 7.789062 0.109375 6.972656 0.234375 6.046875 0.234375 C 4.992188 0.234375 4.035156 0.0625 3.171875 -0.28125 C 2.316406 -0.625 1.59375 -1.0625 1 -1.59375 L 1.625 -2.609375 C 1.707031 -2.742188 1.800781 -2.84375 1.90625 -2.90625 C 2.019531 -2.976562 2.160156 -3.015625 2.328125 -3.015625 C 2.503906 -3.015625 2.691406 -2.941406 2.890625 -2.796875 C 3.097656 -2.660156 3.34375 -2.507812 3.625 -2.34375 C 3.90625 -2.175781 4.25 -2.019531 4.65625 -1.875 C 5.0625 -1.738281 5.570312 -1.671875 6.1875 -1.671875 C 6.695312 -1.671875 7.144531 -1.738281 7.53125 -1.875 C 7.925781 -2.007812 8.253906 -2.191406 8.515625 -2.421875 C 8.773438 -2.648438 8.96875 -2.910156 9.09375 -3.203125 C 9.21875 -3.503906 9.28125 -3.828125 9.28125 -4.171875 C 9.28125 -4.585938 9.164062 -4.929688 8.9375 -5.203125 C 8.71875 -5.472656 8.421875 -5.707031 8.046875 -5.90625 C 7.679688 -6.101562 7.257812 -6.269531 6.78125 -6.40625 C 6.3125 -6.550781 5.828125 -6.703125 5.328125 -6.859375 C 4.835938 -7.023438 4.359375 -7.207031 3.890625 -7.40625 C 3.421875 -7.613281 3 -7.875 2.625 -8.1875 C 2.257812 -8.5 1.960938 -8.878906 1.734375 -9.328125 C 1.515625 -9.785156 1.40625 -10.335938 1.40625 -10.984375 C 1.40625 -11.554688 1.523438 -12.109375 1.765625 -12.640625 C 2.003906 -13.171875 2.351562 -13.640625 2.8125 -14.046875 C 3.269531 -14.453125 3.832031 -14.773438 4.5 -15.015625 C 5.164062 -15.253906 5.925781 -15.375 6.78125 -15.375 C 7.78125 -15.375 8.675781 -15.210938 9.46875 -14.890625 C 10.257812 -14.578125 10.941406 -14.148438 11.515625 -13.609375 Z M 10.921875 -12.640625 "/></g></g></g><g fill="#124838" fill-opacity="1"><g transform="translate(168.123012, 367.79735)"><g><path d="M 6.75 0.234375 C 5.550781 0.234375 4.628906 -0.0976562 3.984375 -0.765625 C 3.347656 -1.429688 3.03125 -2.390625 3.03125 -3.640625 L 3.03125 -12.90625 L 1.203125 -12.90625 C 1.046875 -12.90625 0.910156 -12.953125 0.796875 -13.046875 C 0.691406 -13.140625 0.640625 -13.285156 0.640625 -13.484375 L 0.640625 -14.546875 L 3.125 -14.859375 L 3.734375 -19.53125 C 3.765625 -19.6875 3.832031 -19.8125 3.9375 -19.90625 C 4.039062 -20 4.175781 -20.046875 4.34375 -20.046875 L 5.6875 -20.046875 L 5.6875 -14.828125 L 10.0625 -14.828125 L 10.0625 -12.90625 L 5.6875 -12.90625 L 5.6875 -3.828125 C 5.6875 -3.191406 5.84375 -2.71875 6.15625 -2.40625 C 6.46875 -2.09375 6.863281 -1.9375 7.34375 -1.9375 C 7.625 -1.9375 7.863281 -1.972656 8.0625 -2.046875 C 8.269531 -2.128906 8.445312 -2.210938 8.59375 -2.296875 C 8.75 -2.390625 8.878906 -2.472656 8.984375 -2.546875 C 9.085938 -2.617188 9.179688 -2.65625 9.265625 -2.65625 C 9.398438 -2.65625 9.523438 -2.570312 9.640625 -2.40625 L 10.40625 -1.140625 C 9.945312 -0.710938 9.394531 -0.375 8.75 -0.125 C 8.101562 0.113281 7.4375 0.234375 6.75 0.234375 Z M 6.75 0.234375 "/></g></g></g><g fill="#124838" fill-opacity="1"><g transform="translate(178.831036, 367.79735)"><g><path d="M 4.78125 -22 L 4.78125 -9.046875 L 5.46875 -9.046875 C 5.664062 -9.046875 5.832031 -9.070312 5.96875 -9.125 C 6.101562 -9.1875 6.242188 -9.300781 6.390625 -9.46875 L 11.171875 -14.59375 C 11.304688 -14.757812 11.453125 -14.890625 11.609375 -14.984375 C 11.765625 -15.078125 11.972656 -15.125 12.234375 -15.125 L 14.640625 -15.125 L 9.0625 -9.203125 C 8.789062 -8.859375 8.503906 -8.59375 8.203125 -8.40625 C 8.378906 -8.289062 8.539062 -8.15625 8.6875 -8 C 8.832031 -7.84375 8.96875 -7.664062 9.09375 -7.46875 L 15.015625 0 L 12.640625 0 C 12.410156 0 12.210938 -0.0351562 12.046875 -0.109375 C 11.878906 -0.179688 11.738281 -0.316406 11.625 -0.515625 L 6.640625 -6.71875 C 6.492188 -6.925781 6.347656 -7.0625 6.203125 -7.125 C 6.054688 -7.195312 5.835938 -7.234375 5.546875 -7.234375 L 4.78125 -7.234375 L 4.78125 0 L 2.109375 0 L 2.109375 -22 Z M 4.78125 -22 "/></g></g></g><g fill="#124838" fill-opacity="1"><g transform="translate(194.004479, 367.79735)"><g><path d="M 8.484375 -15.375 C 9.585938 -15.375 10.582031 -15.1875 11.46875 -14.8125 C 12.351562 -14.445312 13.109375 -13.925781 13.734375 -13.25 C 14.367188 -12.570312 14.851562 -11.75 15.1875 -10.78125 C 15.519531 -9.820312 15.6875 -8.753906 15.6875 -7.578125 C 15.6875 -6.378906 15.519531 -5.300781 15.1875 -4.34375 C 14.851562 -3.382812 14.367188 -2.566406 13.734375 -1.890625 C 13.109375 -1.210938 12.351562 -0.691406 11.46875 -0.328125 C 10.582031 0.0234375 9.585938 0.203125 8.484375 0.203125 C 7.367188 0.203125 6.363281 0.0234375 5.46875 -0.328125 C 4.582031 -0.691406 3.820312 -1.210938 3.1875 -1.890625 C 2.5625 -2.566406 2.082031 -3.382812 1.75 -4.34375 C 1.414062 -5.300781 1.25 -6.378906 1.25 -7.578125 C 1.25 -8.753906 1.414062 -9.820312 1.75 -10.78125 C 2.082031 -11.75 2.5625 -12.570312 3.1875 -13.25 C 3.820312 -13.925781 4.582031 -14.445312 5.46875 -14.8125 C 6.363281 -15.1875 7.367188 -15.375 8.484375 -15.375 Z M 8.484375 -1.859375 C 9.972656 -1.859375 11.085938 -2.359375 11.828125 -3.359375 C 12.566406 -4.367188 12.9375 -5.769531 12.9375 -7.5625 C 12.9375 -9.363281 12.566406 -10.765625 11.828125 -11.765625 C 11.085938 -12.773438 9.972656 -13.28125 8.484375 -13.28125 C 7.722656 -13.28125 7.0625 -13.148438 6.5 -12.890625 C 5.9375 -12.628906 5.46875 -12.253906 5.09375 -11.765625 C 4.726562 -11.273438 4.453125 -10.675781 4.265625 -9.96875 C 4.078125 -9.257812 3.984375 -8.457031 3.984375 -7.5625 C 3.984375 -5.769531 4.351562 -4.367188 5.09375 -3.359375 C 5.84375 -2.359375 6.972656 -1.859375 8.484375 -1.859375 Z M 8.484375 -1.859375 "/></g></g></g><g fill="#124838" fill-opacity="1"><g transform="translate(210.940202, 367.79735)"><g/></g></g><g fill="#124838" fill-opacity="1"><g transform="translate(218.586661, 367.79735)"><g><path d="M 8.484375 -15.375 C 9.585938 -15.375 10.582031 -15.1875 11.46875 -14.8125 C 12.351562 -14.445312 13.109375 -13.925781 13.734375 -13.25 C 14.367188 -12.570312 14.851562 -11.75 15.1875 -10.78125 C 15.519531 -9.820312 15.6875 -8.753906 15.6875 -7.578125 C 15.6875 -6.378906 15.519531 -5.300781 15.1875 -4.34375 C 14.851562 -3.382812 14.367188 -2.566406 13.734375 -1.890625 C 13.109375 -1.210938 12.351562 -0.691406 11.46875 -0.328125 C 10.582031 0.0234375 9.585938 0.203125 8.484375 0.203125 C 7.367188 0.203125 6.363281 0.0234375 5.46875 -0.328125 C 4.582031 -0.691406 3.820312 -1.210938 3.1875 -1.890625 C 2.5625 -2.566406 2.082031 -3.382812 1.75 -4.34375 C 1.414062 -5.300781 1.25 -6.378906 1.25 -7.578125 C 1.25 -8.753906 1.414062 -9.820312 1.75 -10.78125 C 2.082031 -11.75 2.5625 -12.570312 3.1875 -13.25 C 3.820312 -13.925781 4.582031 -14.445312 5.46875 -14.8125 C 6.363281 -15.1875 7.367188 -15.375 8.484375 -15.375 Z M 8.484375 -1.859375 C 9.972656 -1.859375 11.085938 -2.359375 11.828125 -3.359375 C 12.566406 -4.367188 12.9375 -5.769531 12.9375 -7.5625 C 12.9375 -9.363281 12.566406 -10.765625 11.828125 -11.765625 C 11.085938 -12.773438 9.972656 -13.28125 8.484375 -13.28125 C 7.722656 -13.28125 7.0625 -13.148438 6.5 -12.890625 C 5.9375 -12.628906 5.46875 -12.253906 5.09375 -11.765625 C 4.726562 -11.273438 4.453125 -10.675781 4.265625 -9.96875 C 4.078125 -9.257812 3.984375 -8.457031 3.984375 -7.5625 C 3.984375 -5.769531 4.351562 -4.367188 5.09375 -3.359375 C 5.84375 -2.359375 6.972656 -1.859375 8.484375 -1.859375 Z M 8.484375 -1.859375 "/></g></g></g><g fill="#124838" fill-opacity="1"><g transform="translate(235.522384, 367.79735)"><g/></g></g><g fill="#124838" fill-opacity="1"><g transform="translate(243.168843, 367.79735)"><g><path d="M 15.9375 -2.359375 L 15.921875 0 L 2.734375 0 L 2.734375 -21.40625 L 15.921875 -21.40625 L 15.921875 -19.046875 L 5.625 -19.046875 L 5.625 -11.9375 L 13.96875 -11.9375 L 13.96875 -9.671875 L 5.625 -9.671875 L 5.625 -2.359375 Z M 15.9375 -2.359375 "/></g></g></g><g fill="#124838" fill-opacity="1"><g transform="translate(260.418185, 367.79735)"><g><path d="M 4.78125 -22 L 4.78125 -9.046875 L 5.46875 -9.046875 C 5.664062 -9.046875 5.832031 -9.070312 5.96875 -9.125 C 6.101562 -9.1875 6.242188 -9.300781 6.390625 -9.46875 L 11.171875 -14.59375 C 11.304688 -14.757812 11.453125 -14.890625 11.609375 -14.984375 C 11.765625 -15.078125 11.972656 -15.125 12.234375 -15.125 L 14.640625 -15.125 L 9.0625 -9.203125 C 8.789062 -8.859375 8.503906 -8.59375 8.203125 -8.40625 C 8.378906 -8.289062 8.539062 -8.15625 8.6875 -8 C 8.832031 -7.84375 8.96875 -7.664062 9.09375 -7.46875 L 15.015625 0 L 12.640625 0 C 12.410156 0 12.210938 -0.0351562 12.046875 -0.109375 C 11.878906 -0.179688 11.738281 -0.316406 11.625 -0.515625 L 6.640625 -6.71875 C 6.492188 -6.925781 6.347656 -7.0625 6.203125 -7.125 C 6.054688 -7.195312 5.835938 -7.234375 5.546875 -7.234375 L 4.78125 -7.234375 L 4.78125 0 L 2.109375 0 L 2.109375 -22 Z M 4.78125 -22 "/></g></g></g><g fill="#124838" fill-opacity="1"><g transform="translate(275.591628, 367.79735)"><g><path d="M 8.484375 -15.375 C 9.585938 -15.375 10.582031 -15.1875 11.46875 -14.8125 C 12.351562 -14.445312 13.109375 -13.925781 13.734375 -13.25 C 14.367188 -12.570312 14.851562 -11.75 15.1875 -10.78125 C 15.519531 -9.820312 15.6875 -8.753906 15.6875 -7.578125 C 15.6875 -6.378906 15.519531 -5.300781 15.1875 -4.34375 C 14.851562 -3.382812 14.367188 -2.566406 13.734375 -1.890625 C 13.109375 -1.210938 12.351562 -0.691406 11.46875 -0.328125 C 10.582031 0.0234375 9.585938 0.203125 8.484375 0.203125 C 7.367188 0.203125 6.363281 0.0234375 5.46875 -0.328125 C 4.582031 -0.691406 3.820312 -1.210938 3.1875 -1.890625 C 2.5625 -2.566406 2.082031 -3.382812 1.75 -4.34375 C 1.414062 -5.300781 1.25 -6.378906 1.25 -7.578125 C 1.25 -8.753906 1.414062 -9.820312 1.75 -10.78125 C 2.082031 -11.75 2.5625 -12.570312 3.1875 -13.25 C 3.820312 -13.925781 4.582031 -14.445312 5.46875 -14.8125 C 6.363281 -15.1875 7.367188 -15.375 8.484375 -15.375 Z M 8.484375 -1.859375 C 9.972656 -1.859375 11.085938 -2.359375 11.828125 -3.359375 C 12.566406 -4.367188 12.9375 -5.769531 12.9375 -7.5625 C 12.9375 -9.363281 12.566406 -10.765625 11.828125 -11.765625 C 11.085938 -12.773438 9.972656 -13.28125 8.484375 -13.28125 C 7.722656 -13.28125 7.0625 -13.148438 6.5 -12.890625 C 5.9375 -12.628906 5.46875 -12.253906 5.09375 -11.765625 C 4.726562 -11.273438 4.453125 -10.675781 4.265625 -9.96875 C 4.078125 -9.257812 3.984375 -8.457031 3.984375 -7.5625 C 3.984375 -5.769531 4.351562 -4.367188 5.09375 -3.359375 C 5.84375 -2.359375 6.972656 -1.859375 8.484375 -1.859375 Z M 8.484375 -1.859375 "/></g></g></g></svg>