<svg xmlns="http://www.w3.org/2000/svg" xmlns:xlink="http://www.w3.org/1999/xlink" width="200" zoomAndPan="magnify" viewBox="0 0 150 50.249999" height="67" preserveAspectRatio="xMidYMid meet" version="1.0"><defs><g/><clipPath id="5ed3713f11"><path d="M 22 11 L 46 11 L 46 49.511719 L 22 49.511719 Z M 22 11 " clip-rule="nonzero"/></clipPath><clipPath id="978a66e448"><path d="M 42.390625 36.109375 C 42.328125 32.585938 41.972656 28.902344 40.070312 25.9375 C 40.542969 26.8125 40.5625 27.917969 40.117188 28.808594 C 39.902344 26.105469 38.078125 23.773438 35.945312 22.085938 C 33.816406 20.398438 31.347656 19.207031 29.121094 17.65625 C 26.894531 16.105469 24.832031 14.0625 24.125 11.441406 C 23.40625 15.050781 22.753906 18.714844 22.878906 22.390625 C 23.007812 26.070312 23.984375 29.816406 26.230469 32.734375 C 30.015625 37.644531 36.929688 39.71875 39.828125 45.195312 C 40.207031 41.535156 39.074219 37.742188 36.746094 34.882812 C 34.804688 32.5 32.132812 30.816406 30.09375 28.515625 C 27.839844 25.976562 26.425781 22.703125 26.117188 19.324219 C 26.707031 22.78125 29.480469 25.417969 32.277344 27.539062 C 35.070312 29.660156 38.152344 31.652344 39.855469 34.714844 C 41.171875 37.074219 41.527344 39.824219 42.121094 42.457031 C 42.714844 45.09375 43.667969 47.820312 45.777344 49.503906 C 45.238281 48.59375 42.574219 46.160156 42.390625 36.109375 Z M 42.390625 36.109375 " clip-rule="nonzero"/></clipPath><clipPath id="cb4e3040df"><path d="M 45 41 L 56 41 L 56 49 L 45 49 Z M 45 41 " clip-rule="nonzero"/></clipPath><clipPath id="c8ad340c74"><path d="M 45.101562 46.996094 C 45.339844 47.484375 45.566406 47.871094 45.765625 48.167969 C 49.558594 46.863281 52.945312 44.664062 55.65625 41.820312 C 52.710938 44.394531 49.089844 46.21875 45.101562 46.996094 Z M 45.101562 46.996094 " clip-rule="nonzero"/></clipPath><clipPath id="035aec441b"><path d="M 12.988281 0 L 56 0 L 56 49.511719 L 12.988281 49.511719 Z M 12.988281 0 " clip-rule="nonzero"/></clipPath><clipPath id="6076ecd88c"><path d="M 43.03125 47.296875 C 42.277344 47.371094 41.523438 47.410156 40.75 47.410156 C 28.238281 47.410156 18.089844 37.265625 18.089844 24.75 C 18.089844 12.234375 28.238281 2.09375 40.75 2.09375 C 46.460938 2.09375 51.671875 4.207031 55.65625 7.691406 C 51.148438 2.960938 44.785156 0.0078125 37.734375 0.0078125 C 24.066406 0.0078125 12.988281 11.085938 12.988281 24.753906 C 12.988281 38.425781 24.066406 49.503906 37.734375 49.503906 C 39.886719 49.503906 41.972656 49.226562 43.960938 48.710938 C 43.601562 48.265625 43.296875 47.792969 43.03125 47.296875 Z M 43.03125 47.296875 " clip-rule="nonzero"/></clipPath></defs><g clip-path="url(#5ed3713f11)"><g clip-path="url(#978a66e448)"><path fill="#000000" d="M 45.777344 11.441406 L 45.777344 49.503906 L 22.753906 49.503906 L 22.753906 11.441406 Z M 45.777344 11.441406 " fill-opacity="1" fill-rule="nonzero"/></g></g><path fill="#000000" d="M 58.902344 22.441406 C 57.835938 18.507812 55.730469 14.949219 53.652344 11.441406 C 54.488281 13.527344 53.722656 15.9375 52.492188 17.820312 C 51.265625 19.703125 49.601562 21.265625 48.375 23.148438 C 46.238281 26.417969 45.078125 29.472656 45.078125 34.507812 C 45.078125 37.964844 45.957031 41.257812 46.871094 44.59375 C 46.980469 41.726562 47.082031 38.6875 47.929688 36.007812 C 50.265625 28.582031 54.410156 25.722656 56.570312 24.6875 C 48.828125 31.101562 48.933594 40.585938 48.882812 41.433594 C 52.304688 39.648438 55.808594 37.59375 57.800781 34.292969 C 59.902344 30.796875 59.972656 26.378906 58.902344 22.441406 Z M 58.902344 22.441406 " fill-opacity="1" fill-rule="nonzero"/><g clip-path="url(#cb4e3040df)"><g clip-path="url(#c8ad340c74)"><path fill="#000000" d="M 55.65625 41.820312 L 55.65625 48.167969 L 45.101562 48.167969 L 45.101562 41.820312 Z M 55.65625 41.820312 " fill-opacity="1" fill-rule="nonzero"/></g></g><g clip-path="url(#035aec441b)"><g clip-path="url(#6076ecd88c)"><path fill="#000000" d="M 55.65625 0.0078125 L 55.65625 49.503906 L 12.988281 49.503906 L 12.988281 0.0078125 Z M 55.65625 0.0078125 " fill-opacity="1" fill-rule="nonzero"/></g></g><g fill="#000000" fill-opacity="1"><g transform="translate(66.55676, 31.055566)"><g><path d="M 2.929688 0 L 6.910156 0 L 6.910156 -16 L 7.085938 -16 L 12.292969 0 L 16.089844 0 L 21.324219 -16 L 21.472656 -16 L 21.472656 0 L 25.511719 0 L 25.511719 -20.605469 L 19.5 -20.605469 L 14.207031 -4.605469 L 8.882812 -20.605469 L 2.929688 -20.605469 Z M 2.929688 0 "/></g></g></g><g fill="#000000" fill-opacity="1"><g transform="translate(94.996583, 31.055566)"><g><path d="M 2.929688 0 L 6.9375 0 L 6.9375 -7.328125 L 12.230469 -7.328125 C 16.65625 -7.328125 19.257812 -9.75 19.257812 -13.875 C 19.257812 -17.972656 16.628906 -20.636719 12.230469 -20.636719 L 2.929688 -20.636719 Z M 6.9375 -10.675781 L 6.9375 -17.136719 L 11.84375 -17.136719 C 14.117188 -17.136719 15.253906 -15.96875 15.253906 -13.90625 C 15.253906 -11.78125 14.175781 -10.675781 11.84375 -10.675781 Z M 6.9375 -10.675781 "/></g></g></g><g fill="#000000" fill-opacity="1"><g transform="translate(115.750767, 31.055566)"><g><path d="M 2.929688 0 L 16.777344 0 L 16.777344 -3.4375 L 6.96875 -3.4375 L 6.96875 -8.613281 L 15.941406 -8.613281 L 15.941406 -12.050781 L 6.96875 -12.050781 L 6.96875 -17.195312 L 16.777344 -17.195312 L 16.777344 -20.636719 L 2.929688 -20.636719 Z M 2.929688 0 "/></g></g></g><g fill="#000000" fill-opacity="1"><g transform="translate(73.219327, 45.160198)"><g><path d="M 7.9375 -5.578125 L 6.203125 0 L 5.515625 0 L 4.109375 -4.25 C 4.097656 -4.289062 4.082031 -4.332031 4.0625 -4.375 C 4.050781 -4.425781 4.039062 -4.476562 4.03125 -4.53125 C 4.019531 -4.476562 4.003906 -4.425781 3.984375 -4.375 C 3.972656 -4.332031 3.960938 -4.289062 3.953125 -4.25 L 2.53125 0 L 1.859375 0 L 0.125 -5.578125 L 0.75 -5.578125 C 0.8125 -5.578125 0.863281 -5.554688 0.90625 -5.515625 C 0.957031 -5.484375 0.988281 -5.441406 1 -5.390625 L 2.15625 -1.515625 C 2.175781 -1.453125 2.191406 -1.378906 2.203125 -1.296875 C 2.222656 -1.210938 2.238281 -1.125 2.25 -1.03125 C 2.269531 -1.125 2.289062 -1.210938 2.3125 -1.296875 C 2.332031 -1.378906 2.351562 -1.453125 2.375 -1.515625 L 3.6875 -5.390625 C 3.707031 -5.441406 3.738281 -5.484375 3.78125 -5.515625 C 3.820312 -5.554688 3.875 -5.578125 3.9375 -5.578125 L 4.15625 -5.578125 C 4.226562 -5.578125 4.285156 -5.554688 4.328125 -5.515625 C 4.367188 -5.484375 4.398438 -5.441406 4.421875 -5.390625 L 5.734375 -1.515625 C 5.753906 -1.453125 5.769531 -1.378906 5.78125 -1.296875 C 5.800781 -1.222656 5.820312 -1.144531 5.84375 -1.0625 C 5.851562 -1.144531 5.863281 -1.222656 5.875 -1.296875 C 5.894531 -1.378906 5.914062 -1.453125 5.9375 -1.515625 L 7.09375 -5.390625 C 7.101562 -5.441406 7.128906 -5.484375 7.171875 -5.515625 C 7.222656 -5.554688 7.28125 -5.578125 7.34375 -5.578125 Z M 7.9375 -5.578125 "/></g></g></g><g fill="#000000" fill-opacity="1"><g transform="translate(81.270598, 45.160198)"><g><path d="M 2.84375 -3.296875 C 2.8125 -3.234375 2.765625 -3.203125 2.703125 -3.203125 C 2.660156 -3.203125 2.613281 -3.21875 2.5625 -3.25 C 2.519531 -3.28125 2.460938 -3.3125 2.390625 -3.34375 C 2.316406 -3.375 2.226562 -3.40625 2.125 -3.4375 C 2.03125 -3.46875 1.914062 -3.484375 1.78125 -3.484375 C 1.664062 -3.484375 1.5625 -3.46875 1.46875 -3.4375 C 1.375 -3.40625 1.289062 -3.363281 1.21875 -3.3125 C 1.15625 -3.257812 1.101562 -3.195312 1.0625 -3.125 C 1.03125 -3.0625 1.015625 -2.988281 1.015625 -2.90625 C 1.015625 -2.8125 1.046875 -2.726562 1.109375 -2.65625 C 1.171875 -2.59375 1.25 -2.535156 1.34375 -2.484375 C 1.4375 -2.429688 1.546875 -2.382812 1.671875 -2.34375 C 1.796875 -2.3125 1.921875 -2.273438 2.046875 -2.234375 C 2.171875 -2.191406 2.296875 -2.144531 2.421875 -2.09375 C 2.546875 -2.039062 2.65625 -1.972656 2.75 -1.890625 C 2.84375 -1.816406 2.914062 -1.722656 2.96875 -1.609375 C 3.03125 -1.492188 3.0625 -1.359375 3.0625 -1.203125 C 3.0625 -1.023438 3.03125 -0.859375 2.96875 -0.703125 C 2.90625 -0.546875 2.804688 -0.410156 2.671875 -0.296875 C 2.546875 -0.179688 2.390625 -0.09375 2.203125 -0.03125 C 2.023438 0.03125 1.816406 0.0625 1.578125 0.0625 C 1.296875 0.0625 1.046875 0.0195312 0.828125 -0.0625 C 0.609375 -0.15625 0.421875 -0.273438 0.265625 -0.421875 L 0.421875 -0.6875 C 0.441406 -0.71875 0.46875 -0.738281 0.5 -0.75 C 0.53125 -0.769531 0.566406 -0.78125 0.609375 -0.78125 C 0.648438 -0.78125 0.695312 -0.757812 0.75 -0.71875 C 0.800781 -0.6875 0.863281 -0.648438 0.9375 -0.609375 C 1.007812 -0.566406 1.097656 -0.523438 1.203125 -0.484375 C 1.316406 -0.453125 1.453125 -0.4375 1.609375 -0.4375 C 1.742188 -0.4375 1.859375 -0.453125 1.953125 -0.484375 C 2.054688 -0.523438 2.140625 -0.570312 2.203125 -0.625 C 2.273438 -0.6875 2.328125 -0.753906 2.359375 -0.828125 C 2.398438 -0.910156 2.421875 -0.992188 2.421875 -1.078125 C 2.421875 -1.191406 2.390625 -1.285156 2.328125 -1.359375 C 2.265625 -1.429688 2.1875 -1.488281 2.09375 -1.53125 C 2 -1.582031 1.890625 -1.628906 1.765625 -1.671875 C 1.640625 -1.710938 1.515625 -1.753906 1.390625 -1.796875 C 1.265625 -1.835938 1.140625 -1.882812 1.015625 -1.9375 C 0.890625 -1.988281 0.78125 -2.050781 0.6875 -2.125 C 0.59375 -2.207031 0.515625 -2.304688 0.453125 -2.421875 C 0.390625 -2.546875 0.359375 -2.691406 0.359375 -2.859375 C 0.359375 -3.003906 0.390625 -3.144531 0.453125 -3.28125 C 0.515625 -3.425781 0.601562 -3.550781 0.71875 -3.65625 C 0.84375 -3.757812 0.992188 -3.84375 1.171875 -3.90625 C 1.347656 -3.96875 1.546875 -4 1.765625 -4 C 2.023438 -4 2.257812 -3.957031 2.46875 -3.875 C 2.675781 -3.800781 2.851562 -3.691406 3 -3.546875 Z M 2.84375 -3.296875 "/></g></g></g><g fill="#000000" fill-opacity="1"><g transform="translate(84.637277, 45.160198)"><g><path d="M 3.265625 -3.640625 C 3.265625 -3.597656 3.253906 -3.550781 3.234375 -3.5 C 3.222656 -3.457031 3.203125 -3.414062 3.171875 -3.375 L 1.03125 -0.546875 L 3.1875 -0.546875 L 3.1875 0 L 0.21875 0 L 0.21875 -0.28125 C 0.21875 -0.320312 0.222656 -0.363281 0.234375 -0.40625 C 0.253906 -0.445312 0.28125 -0.488281 0.3125 -0.53125 L 2.46875 -3.390625 L 0.34375 -3.390625 L 0.34375 -3.9375 L 3.265625 -3.9375 Z M 3.265625 -3.640625 "/></g></g></g><g fill="#000000" fill-opacity="1"><g transform="translate(88.151692, 45.160198)"><g><path d="M 3.953125 -3.9375 L 1.75 1.15625 C 1.726562 1.207031 1.695312 1.25 1.65625 1.28125 C 1.625 1.3125 1.570312 1.328125 1.5 1.328125 L 0.984375 1.328125 L 1.703125 -0.234375 L 0.078125 -3.9375 L 0.6875 -3.9375 C 0.738281 -3.9375 0.78125 -3.921875 0.8125 -3.890625 C 0.851562 -3.867188 0.878906 -3.835938 0.890625 -3.796875 L 1.953125 -1.3125 C 1.992188 -1.207031 2.023438 -1.09375 2.046875 -0.96875 C 2.085938 -1.09375 2.128906 -1.207031 2.171875 -1.3125 L 3.1875 -3.796875 C 3.207031 -3.835938 3.234375 -3.867188 3.265625 -3.890625 C 3.304688 -3.921875 3.351562 -3.9375 3.40625 -3.9375 Z M 3.953125 -3.9375 "/></g></g></g><g fill="#000000" fill-opacity="1"><g transform="translate(92.159837, 45.160198)"><g><path d="M 2.84375 -3.296875 C 2.8125 -3.234375 2.765625 -3.203125 2.703125 -3.203125 C 2.660156 -3.203125 2.613281 -3.21875 2.5625 -3.25 C 2.519531 -3.28125 2.460938 -3.3125 2.390625 -3.34375 C 2.316406 -3.375 2.226562 -3.40625 2.125 -3.4375 C 2.03125 -3.46875 1.914062 -3.484375 1.78125 -3.484375 C 1.664062 -3.484375 1.5625 -3.46875 1.46875 -3.4375 C 1.375 -3.40625 1.289062 -3.363281 1.21875 -3.3125 C 1.15625 -3.257812 1.101562 -3.195312 1.0625 -3.125 C 1.03125 -3.0625 1.015625 -2.988281 1.015625 -2.90625 C 1.015625 -2.8125 1.046875 -2.726562 1.109375 -2.65625 C 1.171875 -2.59375 1.25 -2.535156 1.34375 -2.484375 C 1.4375 -2.429688 1.546875 -2.382812 1.671875 -2.34375 C 1.796875 -2.3125 1.921875 -2.273438 2.046875 -2.234375 C 2.171875 -2.191406 2.296875 -2.144531 2.421875 -2.09375 C 2.546875 -2.039062 2.65625 -1.972656 2.75 -1.890625 C 2.84375 -1.816406 2.914062 -1.722656 2.96875 -1.609375 C 3.03125 -1.492188 3.0625 -1.359375 3.0625 -1.203125 C 3.0625 -1.023438 3.03125 -0.859375 2.96875 -0.703125 C 2.90625 -0.546875 2.804688 -0.410156 2.671875 -0.296875 C 2.546875 -0.179688 2.390625 -0.09375 2.203125 -0.03125 C 2.023438 0.03125 1.816406 0.0625 1.578125 0.0625 C 1.296875 0.0625 1.046875 0.0195312 0.828125 -0.0625 C 0.609375 -0.15625 0.421875 -0.273438 0.265625 -0.421875 L 0.421875 -0.6875 C 0.441406 -0.71875 0.46875 -0.738281 0.5 -0.75 C 0.53125 -0.769531 0.566406 -0.78125 0.609375 -0.78125 C 0.648438 -0.78125 0.695312 -0.757812 0.75 -0.71875 C 0.800781 -0.6875 0.863281 -0.648438 0.9375 -0.609375 C 1.007812 -0.566406 1.097656 -0.523438 1.203125 -0.484375 C 1.316406 -0.453125 1.453125 -0.4375 1.609375 -0.4375 C 1.742188 -0.4375 1.859375 -0.453125 1.953125 -0.484375 C 2.054688 -0.523438 2.140625 -0.570312 2.203125 -0.625 C 2.273438 -0.6875 2.328125 -0.753906 2.359375 -0.828125 C 2.398438 -0.910156 2.421875 -0.992188 2.421875 -1.078125 C 2.421875 -1.191406 2.390625 -1.285156 2.328125 -1.359375 C 2.265625 -1.429688 2.1875 -1.488281 2.09375 -1.53125 C 2 -1.582031 1.890625 -1.628906 1.765625 -1.671875 C 1.640625 -1.710938 1.515625 -1.753906 1.390625 -1.796875 C 1.265625 -1.835938 1.140625 -1.882812 1.015625 -1.9375 C 0.890625 -1.988281 0.78125 -2.050781 0.6875 -2.125 C 0.59375 -2.207031 0.515625 -2.304688 0.453125 -2.421875 C 0.390625 -2.546875 0.359375 -2.691406 0.359375 -2.859375 C 0.359375 -3.003906 0.390625 -3.144531 0.453125 -3.28125 C 0.515625 -3.425781 0.601562 -3.550781 0.71875 -3.65625 C 0.84375 -3.757812 0.992188 -3.84375 1.171875 -3.90625 C 1.347656 -3.96875 1.546875 -4 1.765625 -4 C 2.023438 -4 2.257812 -3.957031 2.46875 -3.875 C 2.675781 -3.800781 2.851562 -3.691406 3 -3.546875 Z M 2.84375 -3.296875 "/></g></g></g><g fill="#000000" fill-opacity="1"><g transform="translate(95.526516, 45.160198)"><g><path d="M 1.765625 0.0625 C 1.453125 0.0625 1.210938 -0.0195312 1.046875 -0.1875 C 0.878906 -0.363281 0.796875 -0.617188 0.796875 -0.953125 L 0.796875 -3.359375 L 0.3125 -3.359375 C 0.269531 -3.359375 0.234375 -3.367188 0.203125 -3.390625 C 0.179688 -3.421875 0.171875 -3.460938 0.171875 -3.515625 L 0.171875 -3.796875 L 0.8125 -3.875 L 0.96875 -5.09375 C 0.976562 -5.125 0.992188 -5.148438 1.015625 -5.171875 C 1.046875 -5.203125 1.082031 -5.21875 1.125 -5.21875 L 1.484375 -5.21875 L 1.484375 -3.859375 L 2.625 -3.859375 L 2.625 -3.359375 L 1.484375 -3.359375 L 1.484375 -1 C 1.484375 -0.832031 1.519531 -0.707031 1.59375 -0.625 C 1.675781 -0.539062 1.785156 -0.5 1.921875 -0.5 C 1.984375 -0.5 2.039062 -0.507812 2.09375 -0.53125 C 2.15625 -0.550781 2.203125 -0.570312 2.234375 -0.59375 C 2.273438 -0.625 2.304688 -0.644531 2.328125 -0.65625 C 2.359375 -0.675781 2.382812 -0.6875 2.40625 -0.6875 C 2.445312 -0.6875 2.484375 -0.664062 2.515625 -0.625 L 2.71875 -0.296875 C 2.59375 -0.179688 2.445312 -0.09375 2.28125 -0.03125 C 2.113281 0.03125 1.941406 0.0625 1.765625 0.0625 Z M 1.765625 0.0625 "/></g></g></g><g fill="#000000" fill-opacity="1"><g transform="translate(98.313944, 45.160198)"><g><path d="M 1.25 -5.734375 L 1.25 -2.359375 L 1.421875 -2.359375 C 1.472656 -2.359375 1.515625 -2.363281 1.546875 -2.375 C 1.585938 -2.394531 1.628906 -2.425781 1.671875 -2.46875 L 2.90625 -3.796875 C 2.945312 -3.835938 2.984375 -3.867188 3.015625 -3.890625 C 3.054688 -3.921875 3.113281 -3.9375 3.1875 -3.9375 L 3.8125 -3.9375 L 2.359375 -2.390625 C 2.285156 -2.304688 2.210938 -2.238281 2.140625 -2.1875 C 2.179688 -2.15625 2.21875 -2.117188 2.25 -2.078125 C 2.289062 -2.035156 2.332031 -1.988281 2.375 -1.9375 L 3.90625 0 L 3.296875 0 C 3.234375 0 3.179688 -0.0078125 3.140625 -0.03125 C 3.097656 -0.0507812 3.0625 -0.0859375 3.03125 -0.140625 L 1.734375 -1.75 C 1.691406 -1.800781 1.648438 -1.835938 1.609375 -1.859375 C 1.578125 -1.878906 1.519531 -1.890625 1.4375 -1.890625 L 1.25 -1.890625 L 1.25 0 L 0.546875 0 L 0.546875 -5.734375 Z M 1.25 -5.734375 "/></g></g></g><g fill="#000000" fill-opacity="1"><g transform="translate(102.263769, 45.160198)"><g><path d="M 2.203125 -4 C 2.492188 -4 2.753906 -3.953125 2.984375 -3.859375 C 3.210938 -3.765625 3.410156 -3.628906 3.578125 -3.453125 C 3.742188 -3.273438 3.867188 -3.0625 3.953125 -2.8125 C 4.035156 -2.5625 4.078125 -2.28125 4.078125 -1.96875 C 4.078125 -1.65625 4.035156 -1.375 3.953125 -1.125 C 3.867188 -0.882812 3.742188 -0.675781 3.578125 -0.5 C 3.410156 -0.320312 3.210938 -0.1875 2.984375 -0.09375 C 2.753906 0 2.492188 0.046875 2.203125 0.046875 C 1.921875 0.046875 1.660156 0 1.421875 -0.09375 C 1.191406 -0.1875 0.992188 -0.320312 0.828125 -0.5 C 0.671875 -0.675781 0.546875 -0.882812 0.453125 -1.125 C 0.367188 -1.375 0.328125 -1.65625 0.328125 -1.96875 C 0.328125 -2.28125 0.367188 -2.5625 0.453125 -2.8125 C 0.546875 -3.0625 0.671875 -3.273438 0.828125 -3.453125 C 0.992188 -3.628906 1.191406 -3.765625 1.421875 -3.859375 C 1.660156 -3.953125 1.921875 -4 2.203125 -4 Z M 2.203125 -0.484375 C 2.597656 -0.484375 2.890625 -0.613281 3.078125 -0.875 C 3.273438 -1.132812 3.375 -1.5 3.375 -1.96875 C 3.375 -2.4375 3.273438 -2.800781 3.078125 -3.0625 C 2.890625 -3.320312 2.597656 -3.453125 2.203125 -3.453125 C 2.015625 -3.453125 1.84375 -3.414062 1.6875 -3.34375 C 1.539062 -3.28125 1.421875 -3.1875 1.328125 -3.0625 C 1.234375 -2.9375 1.160156 -2.78125 1.109375 -2.59375 C 1.054688 -2.40625 1.03125 -2.195312 1.03125 -1.96875 C 1.03125 -1.5 1.128906 -1.132812 1.328125 -0.875 C 1.523438 -0.613281 1.816406 -0.484375 2.203125 -0.484375 Z M 2.203125 -0.484375 "/></g></g></g><g fill="#000000" fill-opacity="1"><g transform="translate(106.672334, 45.160198)"><g/></g></g><g fill="#000000" fill-opacity="1"><g transform="translate(108.662798, 45.160198)"><g><path d="M 2.203125 -4 C 2.492188 -4 2.753906 -3.953125 2.984375 -3.859375 C 3.210938 -3.765625 3.410156 -3.628906 3.578125 -3.453125 C 3.742188 -3.273438 3.867188 -3.0625 3.953125 -2.8125 C 4.035156 -2.5625 4.078125 -2.28125 4.078125 -1.96875 C 4.078125 -1.65625 4.035156 -1.375 3.953125 -1.125 C 3.867188 -0.882812 3.742188 -0.675781 3.578125 -0.5 C 3.410156 -0.320312 3.210938 -0.1875 2.984375 -0.09375 C 2.753906 0 2.492188 0.046875 2.203125 0.046875 C 1.921875 0.046875 1.660156 0 1.421875 -0.09375 C 1.191406 -0.1875 0.992188 -0.320312 0.828125 -0.5 C 0.671875 -0.675781 0.546875 -0.882812 0.453125 -1.125 C 0.367188 -1.375 0.328125 -1.65625 0.328125 -1.96875 C 0.328125 -2.28125 0.367188 -2.5625 0.453125 -2.8125 C 0.546875 -3.0625 0.671875 -3.273438 0.828125 -3.453125 C 0.992188 -3.628906 1.191406 -3.765625 1.421875 -3.859375 C 1.660156 -3.953125 1.921875 -4 2.203125 -4 Z M 2.203125 -0.484375 C 2.597656 -0.484375 2.890625 -0.613281 3.078125 -0.875 C 3.273438 -1.132812 3.375 -1.5 3.375 -1.96875 C 3.375 -2.4375 3.273438 -2.800781 3.078125 -3.0625 C 2.890625 -3.320312 2.597656 -3.453125 2.203125 -3.453125 C 2.015625 -3.453125 1.84375 -3.414062 1.6875 -3.34375 C 1.539062 -3.28125 1.421875 -3.1875 1.328125 -3.0625 C 1.234375 -2.9375 1.160156 -2.78125 1.109375 -2.59375 C 1.054688 -2.40625 1.03125 -2.195312 1.03125 -1.96875 C 1.03125 -1.5 1.128906 -1.132812 1.328125 -0.875 C 1.523438 -0.613281 1.816406 -0.484375 2.203125 -0.484375 Z M 2.203125 -0.484375 "/></g></g></g><g fill="#000000" fill-opacity="1"><g transform="translate(113.071364, 45.160198)"><g/></g></g><g fill="#000000" fill-opacity="1"><g transform="translate(115.061828, 45.160198)"><g><path d="M 4.15625 -0.609375 L 4.140625 0 L 0.71875 0 L 0.71875 -5.578125 L 4.140625 -5.578125 L 4.140625 -4.953125 L 1.46875 -4.953125 L 1.46875 -3.109375 L 3.640625 -3.109375 L 3.640625 -2.515625 L 1.46875 -2.515625 L 1.46875 -0.609375 Z M 4.15625 -0.609375 "/></g></g></g><g fill="#000000" fill-opacity="1"><g transform="translate(119.552038, 45.160198)"><g><path d="M 1.25 -5.734375 L 1.25 -2.359375 L 1.421875 -2.359375 C 1.472656 -2.359375 1.515625 -2.363281 1.546875 -2.375 C 1.585938 -2.394531 1.628906 -2.425781 1.671875 -2.46875 L 2.90625 -3.796875 C 2.945312 -3.835938 2.984375 -3.867188 3.015625 -3.890625 C 3.054688 -3.921875 3.113281 -3.9375 3.1875 -3.9375 L 3.8125 -3.9375 L 2.359375 -2.390625 C 2.285156 -2.304688 2.210938 -2.238281 2.140625 -2.1875 C 2.179688 -2.15625 2.21875 -2.117188 2.25 -2.078125 C 2.289062 -2.035156 2.332031 -1.988281 2.375 -1.9375 L 3.90625 0 L 3.296875 0 C 3.234375 0 3.179688 -0.0078125 3.140625 -0.03125 C 3.097656 -0.0507812 3.0625 -0.0859375 3.03125 -0.140625 L 1.734375 -1.75 C 1.691406 -1.800781 1.648438 -1.835938 1.609375 -1.859375 C 1.578125 -1.878906 1.519531 -1.890625 1.4375 -1.890625 L 1.25 -1.890625 L 1.25 0 L 0.546875 0 L 0.546875 -5.734375 Z M 1.25 -5.734375 "/></g></g></g><g fill="#000000" fill-opacity="1"><g transform="translate(123.501862, 45.160198)"><g><path d="M 2.203125 -4 C 2.492188 -4 2.753906 -3.953125 2.984375 -3.859375 C 3.210938 -3.765625 3.410156 -3.628906 3.578125 -3.453125 C 3.742188 -3.273438 3.867188 -3.0625 3.953125 -2.8125 C 4.035156 -2.5625 4.078125 -2.28125 4.078125 -1.96875 C 4.078125 -1.65625 4.035156 -1.375 3.953125 -1.125 C 3.867188 -0.882812 3.742188 -0.675781 3.578125 -0.5 C 3.410156 -0.320312 3.210938 -0.1875 2.984375 -0.09375 C 2.753906 0 2.492188 0.046875 2.203125 0.046875 C 1.921875 0.046875 1.660156 0 1.421875 -0.09375 C 1.191406 -0.1875 0.992188 -0.320312 0.828125 -0.5 C 0.671875 -0.675781 0.546875 -0.882812 0.453125 -1.125 C 0.367188 -1.375 0.328125 -1.65625 0.328125 -1.96875 C 0.328125 -2.28125 0.367188 -2.5625 0.453125 -2.8125 C 0.546875 -3.0625 0.671875 -3.273438 0.828125 -3.453125 C 0.992188 -3.628906 1.191406 -3.765625 1.421875 -3.859375 C 1.660156 -3.953125 1.921875 -4 2.203125 -4 Z M 2.203125 -0.484375 C 2.597656 -0.484375 2.890625 -0.613281 3.078125 -0.875 C 3.273438 -1.132812 3.375 -1.5 3.375 -1.96875 C 3.375 -2.4375 3.273438 -2.800781 3.078125 -3.0625 C 2.890625 -3.320312 2.597656 -3.453125 2.203125 -3.453125 C 2.015625 -3.453125 1.84375 -3.414062 1.6875 -3.34375 C 1.539062 -3.28125 1.421875 -3.1875 1.328125 -3.0625 C 1.234375 -2.9375 1.160156 -2.78125 1.109375 -2.59375 C 1.054688 -2.40625 1.03125 -2.195312 1.03125 -1.96875 C 1.03125 -1.5 1.128906 -1.132812 1.328125 -0.875 C 1.523438 -0.613281 1.816406 -0.484375 2.203125 -0.484375 Z M 2.203125 -0.484375 "/></g></g></g></svg>