<?xml version="1.0" encoding="UTF-8" standalone="no"?>
<svg
   xmlns:dc="http://purl.org/dc/elements/1.1/"
   xmlns:cc="http://creativecommons.org/ns#"
   xmlns:rdf="http://www.w3.org/1999/02/22-rdf-syntax-ns#"
   xmlns:svg="http://www.w3.org/2000/svg"
   xmlns="http://www.w3.org/2000/svg"
   version="1.1"
   x="0px"
   y="0px"
   viewBox="0 0 1000 1000"
   enable-background="new 0 0 1000 1000"
   xml:space="preserve"
   id="svg46"><defs
   id="defs50" />
<metadata
   id="metadata2"> Svg Vector Icons : http://www.onlinewebfonts.com/icon <rdf:RDF><cc:Work
     rdf:about=""><dc:format>image/svg+xml</dc:format><dc:type
       rdf:resource="http://purl.org/dc/dcmitype/StillImage" /><dc:title></dc:title></cc:Work></rdf:RDF></metadata>
<g
   id="g44"><g
     id="g12"><path
       d="m 137.53428,432.67155 c -62.582867,0 -113.439967,50.23307 -113.439967,112.34924 v 327.46022 c 0,61.98113 50.720754,112.34924 113.439967,112.34924 h 16.90691 c 62.58287,0 113.43997,-50.23307 113.43997,-112.34924 V 544.88575 c 0,-61.98113 -50.72076,-112.34924 -113.43997,-112.34924 h -16.90691 z"
       id="path4"
       style="fill:#8338ec;fill-opacity:1;stroke:#8338ec;stroke-width:30;stroke-linejoin:round;stroke-miterlimit:4;stroke-dasharray:none;stroke-opacity:1" /><path
       d="m 489.48056,984.69522 h 16.90692 c 62.58287,0 113.43997,-50.23308 113.43997,-112.34924 V 357.72704 c 0,-61.98113 -50.72076,-112.34924 -113.43997,-112.34924 h -16.90692 c -62.58286,0 -113.43996,50.23307 -113.43996,112.34924 v 514.61894 c 0,62.11616 50.8571,112.34924 113.43996,112.34924 z"
       id="path6"
       style="stroke:#8338ec;stroke-width:30;stroke-miterlimit:4;stroke-dasharray:none;stroke-opacity:1;fill:#8338ec;fill-opacity:1" /><path
       d="m 874.64177,984.70003 c 62.58286,0 113.43996,-48.44474 113.43996,-108.34951 V 127.41056 c 0,-59.774557 -50.72075,-108.349519 -113.43996,-108.349519 h -16.90692 c -62.58287,0 -113.30362,48.444734 -113.30362,108.349519 v 749.07018 c 0,59.77455 50.72075,108.34951 113.30362,108.34951 z"
       id="path8"
       style="fill:#8338ec;fill-opacity:1;stroke:#8338ec;stroke-width:29.4611;stroke-miterlimit:4;stroke-dasharray:none;stroke-opacity:1" /></g><g
     id="g14" /><g
     id="g16" /><g
     id="g18" /><g
     id="g20" /><g
     id="g22" /><g
     id="g24" /><g
     id="g26" /><g
     id="g28" /><g
     id="g30" /><g
     id="g32" /><g
     id="g34" /><g
     id="g36" /><g
     id="g38" /><g
     id="g40" /><g
     id="g42" /></g>
</svg>
